<?xml version="1.0" standalone="no"?>
<!DOCTYPE svg PUBLIC "-//W3C//DTD SVG 20010904//EN"
 "http://www.w3.org/TR/2001/REC-SVG-20010904/DTD/svg10.dtd">
<svg version="1.0" xmlns="http://www.w3.org/2000/svg"
 width="300.000000pt" height="300.000000pt" viewBox="0 0 300.000000 300.000000"
 preserveAspectRatio="xMidYMid meet">
<metadata>
Created by potrace 1.10, written by Peter Selinger 2001-2011
</metadata>
<g transform="translate(0.000000,300.000000) scale(0.100000,-0.100000)"
fill="#000000" stroke="none">
<path d="M1090 2252 c0 -5 -85 -101 -190 -213 -104 -112 -189 -207 -187 -210
4 -13 382 -419 389 -419 10 0 160 167 158 177 -1 7 -31 40 -179 195 l-44 47
38 43 c21 24 73 79 115 124 l77 81 -81 91 c-77 86 -96 103 -96 84z m41 -55
c58 -56 99 -106 99 -120 0 -20 -139 -177 -156 -177 -11 0 -44 -56 -44 -74 0
-7 29 -44 64 -82 113 -122 136 -149 136 -159 0 -18 -114 -135 -132 -135 -9 0
-21 6 -25 14 -4 8 -67 77 -139 153 -72 76 -146 155 -164 176 l-33 38 24 26
c82 92 114 123 126 123 8 0 11 5 8 10 -6 10 191 230 205 230 4 0 18 -10 31
-23z"/>
<path d="M1384 2157 l-91 -102 94 -100 93 -100 94 100 94 100 -46 50 c-93 102
-143 155 -145 154 -1 0 -43 -47 -93 -102z m163 -19 c37 -36 63 -71 63 -83 0
-12 -27 -47 -65 -85 l-65 -64 -51 49 c-28 28 -60 62 -71 78 l-20 27 68 70 c37
39 70 70 73 70 3 0 34 -28 68 -62z"/>
<path d="M1836 2194 l-59 -65 61 -62 61 -61 55 59 c30 33 55 62 55 65 1 3 -25
33 -57 67 l-57 62 -59 -65z m101 -16 c18 -18 33 -39 33 -48 0 -9 -16 -31 -35
-50 l-35 -34 -40 39 c-39 38 -39 39 -23 64 16 24 53 60 63 61 2 0 19 -14 37
-32z"/>
<path d="M1702 2047 c-29 -34 -85 -97 -125 -139 l-73 -77 58 -63 58 -63 57 62
c32 34 89 96 127 137 l68 76 -57 65 c-31 36 -57 65 -58 64 -1 0 -26 -28 -55
-62z m98 -22 c42 -43 41 -45 -69 -164 -92 -99 -115 -109 -158 -69 -30 29 -29
43 8 87 59 68 170 181 177 181 5 0 23 -16 42 -35z"/>
<path d="M1971 2037 c-35 -40 -124 -135 -197 -213 l-133 -141 58 -64 59 -64
84 90 c46 50 135 145 197 213 l113 122 -57 65 c-31 36 -57 65 -58 64 -1 0 -31
-33 -66 -72z m108 -12 c17 -20 31 -41 31 -46 0 -11 -27 -40 -192 -214 -42 -44
-95 -100 -118 -124 l-41 -44 -34 33 c-19 19 -35 40 -35 48 0 8 16 30 35 49 18
18 34 36 34 39 0 3 49 58 110 123 61 65 120 130 132 145 27 35 41 33 78 -9z"/>
<path d="M1253 2017 c-4 -8 -44 -53 -88 -100 l-81 -85 30 -33 c16 -19 58 -65
94 -103 l65 -70 19 25 c11 13 54 59 95 102 l75 78 -93 97 c-51 53 -96 98 -100
100 -4 2 -11 -3 -16 -11z m154 -190 c-2 -7 -13 -13 -25 -15 -12 -2 -22 -11
-22 -20 -1 -19 -72 -102 -88 -102 -16 0 -132 124 -132 142 0 9 9 19 19 23 11
3 18 12 15 18 -2 7 19 35 47 61 l52 48 69 -71 c38 -40 68 -77 65 -84z"/>
<path d="M2163 1946 c-4 -8 -62 -71 -127 -141 l-119 -127 61 -61 61 -61 83 90
c46 49 104 110 127 136 l43 48 -57 65 c-31 36 -58 65 -60 65 -2 0 -8 -6 -12
-14z m55 -72 c40 -45 40 -63 2 -77 -16 -6 -30 -19 -30 -27 0 -9 -10 -26 -22
-37 -13 -11 -47 -46 -77 -77 l-54 -57 -39 38 c-37 36 -37 37 -21 62 9 14 27
34 40 45 13 10 22 20 21 22 -6 5 126 143 138 143 6 1 25 -15 42 -35z"/>
<path d="M1383 1702 l-90 -97 93 -100 94 -100 94 100 94 100 -90 97 c-50 54
-94 98 -98 98 -4 0 -48 -44 -97 -98z m227 -93 c-1 -22 -110 -139 -130 -139
-20 0 -130 117 -130 139 0 8 30 44 66 80 l65 66 65 -67 c35 -36 64 -72 64 -79z"/>
<path d="M1835 1590 l-59 -59 62 -65 62 -64 56 64 56 63 -53 61 c-28 33 -55
60 -58 60 -4 0 -33 -27 -66 -60z m114 -26 c12 -15 21 -29 21 -33 0 -3 -16 -23
-36 -45 l-35 -39 -35 34 c-19 18 -34 40 -34 48 0 8 14 30 32 48 35 36 50 34
87 -13z"/>
<path d="M1115 1352 c-11 -8 -14 -137 -3 -148 4 -4 14 -1 22 5 9 7 21 9 28 5
24 -15 115 -14 128 1 15 18 6 45 -15 45 -8 0 -15 6 -15 14 0 9 7 12 20 9 12
-3 20 0 20 7 0 17 -41 8 -54 -13 -9 -15 -7 -22 12 -37 23 -19 14 -39 -10 -23
-7 4 -24 8 -38 8 -19 0 -26 6 -28 24 -2 13 2 28 9 35 9 8 11 6 6 -11 -3 -15
-1 -20 9 -16 21 8 17 43 -4 43 -24 0 -42 -19 -42 -46 0 -12 -7 -25 -16 -28
-13 -5 -15 4 -13 59 2 68 0 79 -16 67z"/>
<path d="M907 1323 c-4 -3 -7 -16 -6 -27 0 -21 0 -21 16 2 24 35 33 26 33 -32
0 -44 -4 -55 -17 -59 -10 -3 2 -5 27 -5 25 0 37 2 28 5 -19 5 -21 17 -12 76 8
42 16 47 32 15 10 -23 11 -23 11 5 1 26 -1 27 -52 27 -30 0 -57 -3 -60 -7z"/>
<path d="M1389 1274 c2 -40 -1 -59 -10 -65 -9 -6 8 -8 46 -7 56 3 60 5 63 28
l2 25 -16 -22 c-9 -13 -27 -23 -41 -23 -19 0 -24 4 -21 22 2 14 13 25 28 29
24 7 24 7 3 8 -31 1 -34 51 -4 51 11 0 23 -5 26 -10 7 -12 25 -4 25 11 0 5
-24 9 -52 9 l-53 0 4 -56z"/>
<path d="M1047 1293 c-2 -5 -5 -27 -6 -50 -1 -30 2 -43 11 -43 18 0 47 20 31
20 -8 0 -13 15 -13 40 0 36 -12 53 -23 33z"/>
<path d="M1520 1290 c0 -5 4 -10 8 -10 5 0 16 -18 26 -40 12 -28 24 -40 38
-40 19 0 20 2 6 18 -8 9 -20 32 -28 50 -8 20 -19 32 -31 32 -11 0 -19 -4 -19
-10z"/>
<path d="M1633 1293 c-9 -3 -13 -27 -13 -73 0 -45 -4 -70 -12 -73 -7 -3 3 -5
22 -5 19 0 29 2 23 5 -18 7 -16 53 1 53 36 0 65 77 36 95 -17 11 -32 -5 -19
-21 12 -15 4 -64 -11 -64 -5 0 -10 20 -12 43 -2 30 -7 42 -15 40z"/>
<path d="M1735 1294 c-14 -6 -6 -96 9 -91 12 4 22 97 9 96 -4 0 -13 -2 -18 -5z"/>
<path d="M1818 1289 c-24 -13 -25 -77 -2 -86 9 -3 26 0 37 7 15 9 22 10 25 1
6 -19 50 -12 62 9 12 23 6 40 -16 40 -8 0 -14 6 -14 14 0 10 7 12 23 9 17 -5
20 -3 10 7 -14 15 -41 7 -50 -16 -4 -11 2 -23 18 -35 26 -19 20 -36 -8 -23
-10 4 -31 8 -47 9 -24 0 -30 5 -33 27 -2 14 2 30 8 34 9 5 10 1 7 -14 -7 -27
8 -29 21 -3 16 30 -6 41 -41 20z"/>
<path d="M1969 1278 c-10 -19 -9 -24 10 -36 24 -17 28 -32 6 -32 -8 0 -15 5
-15 10 0 6 -5 10 -11 10 -6 0 -9 -6 -6 -12 6 -19 48 -16 61 5 9 15 6 21 -14
37 -14 10 -22 22 -18 26 4 4 14 1 23 -6 12 -10 15 -10 15 4 0 24 -37 20 -51
-6z"/>
<path d="M1510 1217 c0 -21 12 -28 27 -16 19 16 16 29 -7 29 -11 0 -20 -6 -20
-13z"/>
</g>
</svg>
